<svg width="54" height="60" viewBox="0 0 54 60" fill="none" xmlns="http://www.w3.org/2000/svg">
<g clip-path="url(#clip0_205_231)">
<path d="M25.06 8.29001V12.86C25.06 13.4 25.35 13.89 25.81 14.16L33.23 18.45C33.47 18.59 33.72 18.65 33.98 18.65C34.5 18.65 35 18.38 35.28 17.9C35.69 17.18 35.45 16.27 34.73 15.85L28.06 12V8.30001C29.68 7.69001 30.85 6.14001 30.85 4.30001C30.85 1.93001 28.93 0.0100098 26.56 0.0100098C24.19 0.0100098 22.27 1.93001 22.27 4.30001C22.27 6.14001 23.43 7.69001 25.06 8.30001V8.29001Z" fill="#0097A7"/>
<path d="M37.12 36.1001V23.9101L26.56 17.8101L16 23.9101V36.1001L26.56 42.2001L37.12 36.1001ZM19 25.6301L26.56 21.2701L34.12 25.6401V34.3701L26.56 38.7401L19 34.3701V25.6401V25.6301Z" fill="#0097A7"/>
<path d="M11.71 28.5C10.88 28.5 10.21 29.17 10.21 30V37.71L7 39.56C5.66 38.46 3.73 38.23 2.14 39.15C0.090003 40.33 -0.609997 42.95 0.570003 45C1.75 47.05 4.37 47.75 6.42 46.57C8.01 45.65 8.78 43.87 8.49 42.16L12.45 39.87C12.91 39.6 13.2 39.11 13.2 38.57V30C13.2 29.17 12.53 28.5 11.7 28.5H11.71Z" fill="#0097A7"/>
<path d="M41.4 31.5C42.23 31.5 42.9 30.83 42.9 30V22.29L46.11 20.44C47.45 21.54 49.38 21.77 50.97 20.85C53.02 19.67 53.72 17.05 52.54 15C51.36 12.95 48.74 12.25 46.69 13.43C45.1 14.35 44.33 16.13 44.62 17.84L40.66 20.13C40.2 20.4 39.91 20.89 39.91 21.43V30C39.91 30.83 40.58 31.5 41.41 31.5H41.4Z" fill="#0097A7"/>
<path d="M28.06 51.71V47.14C28.06 46.6 27.77 46.11 27.31 45.84L19.89 41.55C19.17 41.14 18.26 41.38 17.84 42.1C17.43 42.82 17.67 43.73 18.39 44.15L25.06 48V51.7C23.44 52.31 22.27 53.86 22.27 55.7C22.27 58.07 24.19 59.99 26.56 59.99C28.93 59.99 30.85 58.07 30.85 55.7C30.85 53.86 29.69 52.31 28.06 51.7V51.71Z" fill="#0097A7"/>
<path d="M50.97 39.15C49.38 38.23 47.45 38.46 46.11 39.56L42.15 37.27C41.69 37 41.11 37 40.65 37.27L33.23 41.56C32.51 41.97 32.27 42.89 32.68 43.61C33.09 44.33 34.01 44.57 34.73 44.16L41.4 40.31L44.61 42.16C44.33 43.87 45.09 45.65 46.68 46.57C48.73 47.75 51.35 47.05 52.53 45C53.71 42.95 53.01 40.33 50.96 39.15H50.97Z" fill="#0097A7"/>
<path d="M2.14001 20.85C3.73001 21.77 5.66001 21.54 7.00001 20.44L10.96 22.73C11.19 22.86 11.45 22.93 11.71 22.93C11.97 22.93 12.23 22.86 12.46 22.73L19.88 18.44C20.6 18.03 20.84 17.11 20.43 16.39C20.02 15.67 19.1 15.43 18.38 15.84L11.71 19.69L8.50001 17.84C8.78001 16.13 8.02001 14.35 6.43001 13.43C4.38001 12.25 1.76001 12.95 0.580013 15C-0.599987 17.05 0.100013 19.67 2.15001 20.85H2.14001Z" fill="#0097A7"/>
</g>
<defs>
<clipPath id="clip0_205_231">
<rect width="53.11" height="60" fill="white"/>
</clipPath>
</defs>
</svg>
